M48
; DRILL file {KiCad (6.0.7)} date Thu Oct  6 21:29:41 2022
; FORMAT={-:-/ absolute / inch / decimal}
; #@! TF.CreationDate,2022-10-06T21:29:41+03:00
; #@! TF.GenerationSoftware,Kicad,Pcbnew,(6.0.7)
; #@! TF.FileFunction,Plated,1,2,PTH
FMAT,2
INCH
; #@! TA.AperFunction,Plated,PTH,ViaDrill
T1C0.0118
; #@! TA.AperFunction,Plated,PTH,ComponentDrill
T2C0.0118
; #@! TA.AperFunction,Plated,PTH,ComponentDrill
T3C0.1260
%
G90
G05
T1
X4.1339Y-4.6555
X4.1339Y-4.7244
X4.1732Y-1.811
X4.1732Y-1.8799
X4.1732Y-2.5689
X4.1732Y-3.0512
X4.1732Y-3.1201
X4.1732Y-3.189
X4.2028Y-4.6555
X4.2028Y-4.7244
X4.2224Y-2.5689
X4.2421Y-1.811
X4.2421Y-1.8799
X4.2421Y-3.0512
X4.2421Y-3.1201
X4.2421Y-3.189
X4.3307Y-4.5079
X4.3701Y-1.6732
X4.3701Y-2.2835
X4.3996Y-2.2441
X4.4094Y-2.7165
X4.4094Y-2.7756
X4.4094Y-3.1004
X4.4094Y-3.4154
X4.4094Y-3.7303
X4.4413Y-2.4414
X4.4685Y-1.811
X4.4685Y-1.9291
X4.4685Y-2.1063
X4.4685Y-2.1457
X4.4685Y-3.1004
X4.4685Y-3.4154
X4.4685Y-3.7303
X4.5079Y-1.6142
X4.5177Y-4.1437
X4.5177Y-4.2126
X4.5472Y-1.811
X4.5866Y-4.1437
X4.5866Y-4.2126
X4.6161Y-1.2697
X4.6161Y-1.3386
X4.6161Y-1.4075
X4.6358Y-2.7559
X4.6457Y-1.811
X4.6555Y-4.1437
X4.6555Y-4.2126
X4.6654Y-2.126
X4.6752Y-2.5197
X4.6752Y-5.0984
X4.685Y-1.2697
X4.685Y-1.3386
X4.685Y-1.4075
X4.724Y-2.5197
X4.7244Y-4.1437
X4.7244Y-4.2126
X4.7244Y-5.7776
X4.7244Y-5.8465
X4.7441Y-2.7559
X4.7638Y-5.0
X4.7736Y-2.5197
X4.7835Y-2.2835
X4.7933Y-2.126
X4.7933Y-5.7776
X4.7933Y-5.8465
X4.8327Y-2.2835
X4.8819Y-2.2835
X4.9213Y-1.811
X4.9213Y-5.748
X4.9409Y-2.4311
X4.9902Y-2.4311
X5.0Y-1.811
X5.0Y-3.8681
X5.0Y-4.7343
X5.0Y-4.9705
X5.0295Y-4.4587
X5.0394Y-5.0197
X5.0394Y-5.0787
X5.0394Y-5.187
X5.0394Y-5.2559
X5.0689Y-5.5709
X5.2362Y-5.4331
X5.2756Y-4.1437
X5.2756Y-4.2126
X5.2756Y-4.9114
X5.2854Y-5.6299
X5.315Y-4.9902
X5.315Y-5.748
X5.3248Y-2.5
X5.3346Y-5.3051
X5.3445Y-4.1437
X5.3445Y-4.2126
X5.3445Y-5.6299
X5.3839Y-2.5197
X5.3839Y-5.5147
X5.4035Y-2.3917
X5.4035Y-2.7067
X5.4134Y-4.1437
X5.4134Y-4.2126
X5.4331Y-5.7776
X5.4331Y-5.8465
X5.4823Y-4.1437
X5.4823Y-4.2126
X5.502Y-5.7776
X5.502Y-5.8465
X5.5118Y-5.4823
X5.5118Y-5.6398
X5.5512Y-1.2697
X5.5512Y-1.3386
X5.5512Y-1.4075
X5.561Y-2.3917
X5.5807Y-2.4311
X5.6004Y-2.5394
X5.6201Y-1.2697
X5.6201Y-1.3386
X5.6201Y-1.4075
X5.6299Y-1.5748
X5.6299Y-2.126
X5.689Y-4.6555
X5.689Y-4.7244
X5.7283Y-1.6142
X5.7283Y-1.7224
X5.7579Y-4.6555
X5.7579Y-4.7244
X5.7677Y-3.8583
X5.8268Y-4.6555
X5.8268Y-4.7244
X5.8607Y-5.2657
X5.8607Y-5.6791
X5.8858Y-2.5886
X5.8957Y-2.8051
X5.8957Y-3.7894
X5.9843Y-2.5886
X6.0335Y-1.811
X6.0335Y-1.8799
X6.0335Y-2.1949
X6.0335Y-2.2638
X6.0335Y-3.0512
X6.0335Y-3.1201
X6.0335Y-3.189
X6.0433Y-2.7067
X6.0827Y-2.5886
X6.1024Y-1.811
X6.1024Y-1.8799
X6.1024Y-2.1949
X6.1024Y-2.2638
X6.1024Y-3.0512
X6.1024Y-3.1201
X6.1024Y-3.189
X6.1314Y-2.7062
X6.1319Y-2.7756
X6.1319Y-3.6713
X6.1319Y-4.439
T2
X4.3888Y-2.4606
X4.3888Y-2.5
T3
X4.0945Y-1.3386
X4.0945Y-5.748
X6.1417Y-1.3386
X6.1417Y-5.748
T0
M30
