%TF.GenerationSoftware,KiCad,Pcbnew,(6.0.7)*%
%TF.CreationDate,2022-10-04T23:40:54+03:00*%
%TF.ProjectId,ESP8266Tetris,45535038-3236-4365-9465-747269732e6b,1.0*%
%TF.SameCoordinates,Original*%
%TF.FileFunction,Legend,Bot*%
%TF.FilePolarity,Positive*%
%FSLAX46Y46*%
G04 Gerber Fmt 4.6, Leading zero omitted, Abs format (unit mm)*
G04 Created by KiCad (PCBNEW (6.0.7)) date 2022-10-04 23:40:54*
%MOMM*%
%LPD*%
G01*
G04 APERTURE LIST*
%ADD10C,0.200000*%
%ADD11C,0.300000*%
%ADD12C,0.150000*%
%ADD13C,0.120000*%
G04 APERTURE END LIST*
D10*
X125000000Y-107750000D02*
X135000000Y-107750000D01*
X135000000Y-107750000D02*
X135000000Y-119750000D01*
X135000000Y-119750000D02*
X125000000Y-119750000D01*
X125000000Y-119750000D02*
X125000000Y-107750000D01*
G36*
X125000000Y-107750000D02*
G01*
X135000000Y-107750000D01*
X135000000Y-119750000D01*
X125000000Y-119750000D01*
X125000000Y-107750000D01*
G37*
D11*
X132142857Y-147178571D02*
X131785714Y-148178571D01*
X131428571Y-147178571D01*
X130071428Y-148178571D02*
X130928571Y-148178571D01*
X130500000Y-148178571D02*
X130500000Y-146678571D01*
X130642857Y-146892857D01*
X130785714Y-147035714D01*
X130928571Y-147107142D01*
X129428571Y-148035714D02*
X129357142Y-148107142D01*
X129428571Y-148178571D01*
X129500000Y-148107142D01*
X129428571Y-148035714D01*
X129428571Y-148178571D01*
X128428571Y-146678571D02*
X128285714Y-146678571D01*
X128142857Y-146750000D01*
X128071428Y-146821428D01*
X128000000Y-146964285D01*
X127928571Y-147250000D01*
X127928571Y-147607142D01*
X128000000Y-147892857D01*
X128071428Y-148035714D01*
X128142857Y-148107142D01*
X128285714Y-148178571D01*
X128428571Y-148178571D01*
X128571428Y-148107142D01*
X128642857Y-148035714D01*
X128714285Y-147892857D01*
X128785714Y-147607142D01*
X128785714Y-147250000D01*
X128714285Y-146964285D01*
X128642857Y-146821428D01*
X128571428Y-146750000D01*
X128428571Y-146678571D01*
X131321428Y-104721071D02*
X132035714Y-104721071D01*
X132035714Y-103221071D01*
X130821428Y-104721071D02*
X130821428Y-103721071D01*
X130821428Y-103221071D02*
X130892857Y-103292500D01*
X130821428Y-103363928D01*
X130750000Y-103292500D01*
X130821428Y-103221071D01*
X130821428Y-103363928D01*
X130107142Y-104721071D02*
X130107142Y-103221071D01*
X129535714Y-103221071D01*
X129392857Y-103292500D01*
X129321428Y-103363928D01*
X129250000Y-103506785D01*
X129250000Y-103721071D01*
X129321428Y-103863928D01*
X129392857Y-103935357D01*
X129535714Y-104006785D01*
X130107142Y-104006785D01*
X128392857Y-104721071D02*
X128535714Y-104649642D01*
X128607142Y-104578214D01*
X128678571Y-104435357D01*
X128678571Y-104006785D01*
X128607142Y-103863928D01*
X128535714Y-103792500D01*
X128392857Y-103721071D01*
X128178571Y-103721071D01*
X128035714Y-103792500D01*
X127964285Y-103863928D01*
X127892857Y-104006785D01*
X127892857Y-104435357D01*
X127964285Y-104578214D01*
X128035714Y-104649642D01*
X128178571Y-104721071D01*
X128392857Y-104721071D01*
X132214285Y-105636071D02*
X131285714Y-105636071D01*
X131785714Y-106207500D01*
X131571428Y-106207500D01*
X131428571Y-106278928D01*
X131357142Y-106350357D01*
X131285714Y-106493214D01*
X131285714Y-106850357D01*
X131357142Y-106993214D01*
X131428571Y-107064642D01*
X131571428Y-107136071D01*
X132000000Y-107136071D01*
X132142857Y-107064642D01*
X132214285Y-106993214D01*
X130642857Y-106993214D02*
X130571428Y-107064642D01*
X130642857Y-107136071D01*
X130714285Y-107064642D01*
X130642857Y-106993214D01*
X130642857Y-107136071D01*
X130071428Y-105636071D02*
X129071428Y-105636071D01*
X129714285Y-107136071D01*
X128714285Y-105636071D02*
X128214285Y-107136071D01*
X127714285Y-105636071D01*
D12*
%TO.C,C35*%
X152357142Y-59357142D02*
X152404761Y-59309523D01*
X152452380Y-59166666D01*
X152452380Y-59071428D01*
X152404761Y-58928571D01*
X152309523Y-58833333D01*
X152214285Y-58785714D01*
X152023809Y-58738095D01*
X151880952Y-58738095D01*
X151690476Y-58785714D01*
X151595238Y-58833333D01*
X151500000Y-58928571D01*
X151452380Y-59071428D01*
X151452380Y-59166666D01*
X151500000Y-59309523D01*
X151547619Y-59357142D01*
X151452380Y-59690476D02*
X151452380Y-60309523D01*
X151833333Y-59976190D01*
X151833333Y-60119047D01*
X151880952Y-60214285D01*
X151928571Y-60261904D01*
X152023809Y-60309523D01*
X152261904Y-60309523D01*
X152357142Y-60261904D01*
X152404761Y-60214285D01*
X152452380Y-60119047D01*
X152452380Y-59833333D01*
X152404761Y-59738095D01*
X152357142Y-59690476D01*
X151452380Y-61214285D02*
X151452380Y-60738095D01*
X151928571Y-60690476D01*
X151880952Y-60738095D01*
X151833333Y-60833333D01*
X151833333Y-61071428D01*
X151880952Y-61166666D01*
X151928571Y-61214285D01*
X152023809Y-61261904D01*
X152261904Y-61261904D01*
X152357142Y-61214285D01*
X152404761Y-61166666D01*
X152452380Y-61071428D01*
X152452380Y-60833333D01*
X152404761Y-60738095D01*
X152357142Y-60690476D01*
%TO.C,C34*%
X149857142Y-59357142D02*
X149904761Y-59309523D01*
X149952380Y-59166666D01*
X149952380Y-59071428D01*
X149904761Y-58928571D01*
X149809523Y-58833333D01*
X149714285Y-58785714D01*
X149523809Y-58738095D01*
X149380952Y-58738095D01*
X149190476Y-58785714D01*
X149095238Y-58833333D01*
X149000000Y-58928571D01*
X148952380Y-59071428D01*
X148952380Y-59166666D01*
X149000000Y-59309523D01*
X149047619Y-59357142D01*
X148952380Y-59690476D02*
X148952380Y-60309523D01*
X149333333Y-59976190D01*
X149333333Y-60119047D01*
X149380952Y-60214285D01*
X149428571Y-60261904D01*
X149523809Y-60309523D01*
X149761904Y-60309523D01*
X149857142Y-60261904D01*
X149904761Y-60214285D01*
X149952380Y-60119047D01*
X149952380Y-59833333D01*
X149904761Y-59738095D01*
X149857142Y-59690476D01*
X149285714Y-61166666D02*
X149952380Y-61166666D01*
X148904761Y-60928571D02*
X149619047Y-60690476D01*
X149619047Y-61309523D01*
%TO.C,C33*%
X154857142Y-59357142D02*
X154904761Y-59309523D01*
X154952380Y-59166666D01*
X154952380Y-59071428D01*
X154904761Y-58928571D01*
X154809523Y-58833333D01*
X154714285Y-58785714D01*
X154523809Y-58738095D01*
X154380952Y-58738095D01*
X154190476Y-58785714D01*
X154095238Y-58833333D01*
X154000000Y-58928571D01*
X153952380Y-59071428D01*
X153952380Y-59166666D01*
X154000000Y-59309523D01*
X154047619Y-59357142D01*
X153952380Y-59690476D02*
X153952380Y-60309523D01*
X154333333Y-59976190D01*
X154333333Y-60119047D01*
X154380952Y-60214285D01*
X154428571Y-60261904D01*
X154523809Y-60309523D01*
X154761904Y-60309523D01*
X154857142Y-60261904D01*
X154904761Y-60214285D01*
X154952380Y-60119047D01*
X154952380Y-59833333D01*
X154904761Y-59738095D01*
X154857142Y-59690476D01*
X153952380Y-60642857D02*
X153952380Y-61261904D01*
X154333333Y-60928571D01*
X154333333Y-61071428D01*
X154380952Y-61166666D01*
X154428571Y-61214285D01*
X154523809Y-61261904D01*
X154761904Y-61261904D01*
X154857142Y-61214285D01*
X154904761Y-61166666D01*
X154952380Y-61071428D01*
X154952380Y-60785714D01*
X154904761Y-60690476D01*
X154857142Y-60642857D01*
%TO.C,C11*%
X119357142Y-57857142D02*
X119404761Y-57809523D01*
X119452380Y-57666666D01*
X119452380Y-57571428D01*
X119404761Y-57428571D01*
X119309523Y-57333333D01*
X119214285Y-57285714D01*
X119023809Y-57238095D01*
X118880952Y-57238095D01*
X118690476Y-57285714D01*
X118595238Y-57333333D01*
X118500000Y-57428571D01*
X118452380Y-57571428D01*
X118452380Y-57666666D01*
X118500000Y-57809523D01*
X118547619Y-57857142D01*
X119452380Y-58809523D02*
X119452380Y-58238095D01*
X119452380Y-58523809D02*
X118452380Y-58523809D01*
X118595238Y-58428571D01*
X118690476Y-58333333D01*
X118738095Y-58238095D01*
X119452380Y-59761904D02*
X119452380Y-59190476D01*
X119452380Y-59476190D02*
X118452380Y-59476190D01*
X118595238Y-59380952D01*
X118690476Y-59285714D01*
X118738095Y-59190476D01*
%TO.C,C9*%
X117732142Y-68333333D02*
X117779761Y-68285714D01*
X117827380Y-68142857D01*
X117827380Y-68047619D01*
X117779761Y-67904761D01*
X117684523Y-67809523D01*
X117589285Y-67761904D01*
X117398809Y-67714285D01*
X117255952Y-67714285D01*
X117065476Y-67761904D01*
X116970238Y-67809523D01*
X116875000Y-67904761D01*
X116827380Y-68047619D01*
X116827380Y-68142857D01*
X116875000Y-68285714D01*
X116922619Y-68333333D01*
X117827380Y-68809523D02*
X117827380Y-69000000D01*
X117779761Y-69095238D01*
X117732142Y-69142857D01*
X117589285Y-69238095D01*
X117398809Y-69285714D01*
X117017857Y-69285714D01*
X116922619Y-69238095D01*
X116875000Y-69190476D01*
X116827380Y-69095238D01*
X116827380Y-68904761D01*
X116875000Y-68809523D01*
X116922619Y-68761904D01*
X117017857Y-68714285D01*
X117255952Y-68714285D01*
X117351190Y-68761904D01*
X117398809Y-68809523D01*
X117446428Y-68904761D01*
X117446428Y-69095238D01*
X117398809Y-69190476D01*
X117351190Y-69238095D01*
X117255952Y-69285714D01*
%TO.C,R14*%
X116932142Y-57857142D02*
X116455952Y-57523809D01*
X116932142Y-57285714D02*
X115932142Y-57285714D01*
X115932142Y-57666666D01*
X115979762Y-57761904D01*
X116027381Y-57809523D01*
X116122619Y-57857142D01*
X116265476Y-57857142D01*
X116360714Y-57809523D01*
X116408333Y-57761904D01*
X116455952Y-57666666D01*
X116455952Y-57285714D01*
X116932142Y-58809523D02*
X116932142Y-58238095D01*
X116932142Y-58523809D02*
X115932142Y-58523809D01*
X116075000Y-58428571D01*
X116170238Y-58333333D01*
X116217857Y-58238095D01*
X116265476Y-59666666D02*
X116932142Y-59666666D01*
X115884523Y-59428571D02*
X116598809Y-59190476D01*
X116598809Y-59809523D01*
%TO.C,R3*%
X145666666Y-45452380D02*
X146000000Y-44976190D01*
X146238095Y-45452380D02*
X146238095Y-44452380D01*
X145857142Y-44452380D01*
X145761904Y-44500000D01*
X145714285Y-44547619D01*
X145666666Y-44642857D01*
X145666666Y-44785714D01*
X145714285Y-44880952D01*
X145761904Y-44928571D01*
X145857142Y-44976190D01*
X146238095Y-44976190D01*
X145333333Y-44452380D02*
X144714285Y-44452380D01*
X145047619Y-44833333D01*
X144904761Y-44833333D01*
X144809523Y-44880952D01*
X144761904Y-44928571D01*
X144714285Y-45023809D01*
X144714285Y-45261904D01*
X144761904Y-45357142D01*
X144809523Y-45404761D01*
X144904761Y-45452380D01*
X145190476Y-45452380D01*
X145285714Y-45404761D01*
X145333333Y-45357142D01*
%TO.C,R29*%
X147483630Y-59357142D02*
X147007440Y-59023809D01*
X147483630Y-58785714D02*
X146483630Y-58785714D01*
X146483630Y-59166666D01*
X146531250Y-59261904D01*
X146578869Y-59309523D01*
X146674107Y-59357142D01*
X146816964Y-59357142D01*
X146912202Y-59309523D01*
X146959821Y-59261904D01*
X147007440Y-59166666D01*
X147007440Y-58785714D01*
X146578869Y-59738095D02*
X146531250Y-59785714D01*
X146483630Y-59880952D01*
X146483630Y-60119047D01*
X146531250Y-60214285D01*
X146578869Y-60261904D01*
X146674107Y-60309523D01*
X146769345Y-60309523D01*
X146912202Y-60261904D01*
X147483630Y-59690476D01*
X147483630Y-60309523D01*
X147483630Y-60785714D02*
X147483630Y-60976190D01*
X147436011Y-61071428D01*
X147388392Y-61119047D01*
X147245535Y-61214285D01*
X147055059Y-61261904D01*
X146674107Y-61261904D01*
X146578869Y-61214285D01*
X146531250Y-61166666D01*
X146483630Y-61071428D01*
X146483630Y-60880952D01*
X146531250Y-60785714D01*
X146578869Y-60738095D01*
X146674107Y-60690476D01*
X146912202Y-60690476D01*
X147007440Y-60738095D01*
X147055059Y-60785714D01*
X147102678Y-60880952D01*
X147102678Y-61071428D01*
X147055059Y-61166666D01*
X147007440Y-61214285D01*
X146912202Y-61261904D01*
%TO.C,U4*%
X124452380Y-69738095D02*
X125261904Y-69738095D01*
X125357142Y-69785714D01*
X125404761Y-69833333D01*
X125452380Y-69928571D01*
X125452380Y-70119047D01*
X125404761Y-70214285D01*
X125357142Y-70261904D01*
X125261904Y-70309523D01*
X124452380Y-70309523D01*
X124785714Y-71214285D02*
X125452380Y-71214285D01*
X124404761Y-70976190D02*
X125119047Y-70738095D01*
X125119047Y-71357142D01*
%TO.C,R4*%
X114666666Y-47452380D02*
X115000000Y-46976190D01*
X115238095Y-47452380D02*
X115238095Y-46452380D01*
X114857142Y-46452380D01*
X114761904Y-46500000D01*
X114714285Y-46547619D01*
X114666666Y-46642857D01*
X114666666Y-46785714D01*
X114714285Y-46880952D01*
X114761904Y-46928571D01*
X114857142Y-46976190D01*
X115238095Y-46976190D01*
X113809523Y-46785714D02*
X113809523Y-47452380D01*
X114047619Y-46404761D02*
X114285714Y-47119047D01*
X113666666Y-47119047D01*
%TO.C,R10*%
X114642857Y-39452380D02*
X114976190Y-38976190D01*
X115214285Y-39452380D02*
X115214285Y-38452380D01*
X114833333Y-38452380D01*
X114738095Y-38500000D01*
X114690476Y-38547619D01*
X114642857Y-38642857D01*
X114642857Y-38785714D01*
X114690476Y-38880952D01*
X114738095Y-38928571D01*
X114833333Y-38976190D01*
X115214285Y-38976190D01*
X113690476Y-39452380D02*
X114261904Y-39452380D01*
X113976190Y-39452380D02*
X113976190Y-38452380D01*
X114071428Y-38595238D01*
X114166666Y-38690476D01*
X114261904Y-38738095D01*
X113071428Y-38452380D02*
X112976190Y-38452380D01*
X112880952Y-38500000D01*
X112833333Y-38547619D01*
X112785714Y-38642857D01*
X112738095Y-38833333D01*
X112738095Y-39071428D01*
X112785714Y-39261904D01*
X112833333Y-39357142D01*
X112880952Y-39404761D01*
X112976190Y-39452380D01*
X113071428Y-39452380D01*
X113166666Y-39404761D01*
X113214285Y-39357142D01*
X113261904Y-39261904D01*
X113309523Y-39071428D01*
X113309523Y-38833333D01*
X113261904Y-38642857D01*
X113214285Y-38547619D01*
X113166666Y-38500000D01*
X113071428Y-38452380D01*
%TO.C,U2*%
X130761904Y-55952380D02*
X130761904Y-56761904D01*
X130714285Y-56857142D01*
X130666666Y-56904761D01*
X130571428Y-56952380D01*
X130380952Y-56952380D01*
X130285714Y-56904761D01*
X130238095Y-56857142D01*
X130190476Y-56761904D01*
X130190476Y-55952380D01*
X129761904Y-56047619D02*
X129714285Y-56000000D01*
X129619047Y-55952380D01*
X129380952Y-55952380D01*
X129285714Y-56000000D01*
X129238095Y-56047619D01*
X129190476Y-56142857D01*
X129190476Y-56238095D01*
X129238095Y-56380952D01*
X129809523Y-56952380D01*
X129190476Y-56952380D01*
%TO.C,R21*%
X131452380Y-59357142D02*
X130976190Y-59023809D01*
X131452380Y-58785714D02*
X130452380Y-58785714D01*
X130452380Y-59166666D01*
X130500000Y-59261904D01*
X130547619Y-59309523D01*
X130642857Y-59357142D01*
X130785714Y-59357142D01*
X130880952Y-59309523D01*
X130928571Y-59261904D01*
X130976190Y-59166666D01*
X130976190Y-58785714D01*
X130547619Y-59738095D02*
X130500000Y-59785714D01*
X130452380Y-59880952D01*
X130452380Y-60119047D01*
X130500000Y-60214285D01*
X130547619Y-60261904D01*
X130642857Y-60309523D01*
X130738095Y-60309523D01*
X130880952Y-60261904D01*
X131452380Y-59690476D01*
X131452380Y-60309523D01*
X131452380Y-61261904D02*
X131452380Y-60690476D01*
X131452380Y-60976190D02*
X130452380Y-60976190D01*
X130595238Y-60880952D01*
X130690476Y-60785714D01*
X130738095Y-60690476D01*
%TO.C,C8*%
X145666666Y-55357142D02*
X145714285Y-55404761D01*
X145857142Y-55452380D01*
X145952380Y-55452380D01*
X146095238Y-55404761D01*
X146190476Y-55309523D01*
X146238095Y-55214285D01*
X146285714Y-55023809D01*
X146285714Y-54880952D01*
X146238095Y-54690476D01*
X146190476Y-54595238D01*
X146095238Y-54500000D01*
X145952380Y-54452380D01*
X145857142Y-54452380D01*
X145714285Y-54500000D01*
X145666666Y-54547619D01*
X145095238Y-54880952D02*
X145190476Y-54833333D01*
X145238095Y-54785714D01*
X145285714Y-54690476D01*
X145285714Y-54642857D01*
X145238095Y-54547619D01*
X145190476Y-54500000D01*
X145095238Y-54452380D01*
X144904761Y-54452380D01*
X144809523Y-54500000D01*
X144761904Y-54547619D01*
X144714285Y-54642857D01*
X144714285Y-54690476D01*
X144761904Y-54785714D01*
X144809523Y-54833333D01*
X144904761Y-54880952D01*
X145095238Y-54880952D01*
X145190476Y-54928571D01*
X145238095Y-54976190D01*
X145285714Y-55071428D01*
X145285714Y-55261904D01*
X145238095Y-55357142D01*
X145190476Y-55404761D01*
X145095238Y-55452380D01*
X144904761Y-55452380D01*
X144809523Y-55404761D01*
X144761904Y-55357142D01*
X144714285Y-55261904D01*
X144714285Y-55071428D01*
X144761904Y-54976190D01*
X144809523Y-54928571D01*
X144904761Y-54880952D01*
%TO.C,R11*%
X114932142Y-57857142D02*
X114455952Y-57523809D01*
X114932142Y-57285714D02*
X113932142Y-57285714D01*
X113932142Y-57666666D01*
X113979762Y-57761904D01*
X114027381Y-57809523D01*
X114122619Y-57857142D01*
X114265476Y-57857142D01*
X114360714Y-57809523D01*
X114408333Y-57761904D01*
X114455952Y-57666666D01*
X114455952Y-57285714D01*
X114932142Y-58809523D02*
X114932142Y-58238095D01*
X114932142Y-58523809D02*
X113932142Y-58523809D01*
X114075000Y-58428571D01*
X114170238Y-58333333D01*
X114217857Y-58238095D01*
X114932142Y-59761904D02*
X114932142Y-59190476D01*
X114932142Y-59476190D02*
X113932142Y-59476190D01*
X114075000Y-59380952D01*
X114170238Y-59285714D01*
X114217857Y-59190476D01*
%TO.C,R5*%
X114666666Y-49452380D02*
X115000000Y-48976190D01*
X115238095Y-49452380D02*
X115238095Y-48452380D01*
X114857142Y-48452380D01*
X114761904Y-48500000D01*
X114714285Y-48547619D01*
X114666666Y-48642857D01*
X114666666Y-48785714D01*
X114714285Y-48880952D01*
X114761904Y-48928571D01*
X114857142Y-48976190D01*
X115238095Y-48976190D01*
X113761904Y-48452380D02*
X114238095Y-48452380D01*
X114285714Y-48928571D01*
X114238095Y-48880952D01*
X114142857Y-48833333D01*
X113904761Y-48833333D01*
X113809523Y-48880952D01*
X113761904Y-48928571D01*
X113714285Y-49023809D01*
X113714285Y-49261904D01*
X113761904Y-49357142D01*
X113809523Y-49404761D01*
X113904761Y-49452380D01*
X114142857Y-49452380D01*
X114238095Y-49404761D01*
X114285714Y-49357142D01*
%TO.C,C4*%
X110086904Y-68333333D02*
X110134523Y-68285714D01*
X110182142Y-68142857D01*
X110182142Y-68047619D01*
X110134523Y-67904761D01*
X110039285Y-67809523D01*
X109944047Y-67761904D01*
X109753571Y-67714285D01*
X109610714Y-67714285D01*
X109420238Y-67761904D01*
X109325000Y-67809523D01*
X109229762Y-67904761D01*
X109182142Y-68047619D01*
X109182142Y-68142857D01*
X109229762Y-68285714D01*
X109277381Y-68333333D01*
X109515476Y-69190476D02*
X110182142Y-69190476D01*
X109134523Y-68952380D02*
X109848809Y-68714285D01*
X109848809Y-69333333D01*
%TO.C,R8*%
X108932142Y-57833333D02*
X108455952Y-57500000D01*
X108932142Y-57261904D02*
X107932142Y-57261904D01*
X107932142Y-57642857D01*
X107979762Y-57738095D01*
X108027381Y-57785714D01*
X108122619Y-57833333D01*
X108265476Y-57833333D01*
X108360714Y-57785714D01*
X108408333Y-57738095D01*
X108455952Y-57642857D01*
X108455952Y-57261904D01*
X108360714Y-58404761D02*
X108313095Y-58309523D01*
X108265476Y-58261904D01*
X108170238Y-58214285D01*
X108122619Y-58214285D01*
X108027381Y-58261904D01*
X107979762Y-58309523D01*
X107932142Y-58404761D01*
X107932142Y-58595238D01*
X107979762Y-58690476D01*
X108027381Y-58738095D01*
X108122619Y-58785714D01*
X108170238Y-58785714D01*
X108265476Y-58738095D01*
X108313095Y-58690476D01*
X108360714Y-58595238D01*
X108360714Y-58404761D01*
X108408333Y-58309523D01*
X108455952Y-58261904D01*
X108551190Y-58214285D01*
X108741666Y-58214285D01*
X108836904Y-58261904D01*
X108884523Y-58309523D01*
X108932142Y-58404761D01*
X108932142Y-58595238D01*
X108884523Y-58690476D01*
X108836904Y-58738095D01*
X108741666Y-58785714D01*
X108551190Y-58785714D01*
X108455952Y-58738095D01*
X108408333Y-58690476D01*
X108360714Y-58595238D01*
%TO.C,R25*%
X138483630Y-70357142D02*
X138007440Y-70023809D01*
X138483630Y-69785714D02*
X137483630Y-69785714D01*
X137483630Y-70166666D01*
X137531250Y-70261904D01*
X137578869Y-70309523D01*
X137674107Y-70357142D01*
X137816964Y-70357142D01*
X137912202Y-70309523D01*
X137959821Y-70261904D01*
X138007440Y-70166666D01*
X138007440Y-69785714D01*
X137578869Y-70738095D02*
X137531250Y-70785714D01*
X137483630Y-70880952D01*
X137483630Y-71119047D01*
X137531250Y-71214285D01*
X137578869Y-71261904D01*
X137674107Y-71309523D01*
X137769345Y-71309523D01*
X137912202Y-71261904D01*
X138483630Y-70690476D01*
X138483630Y-71309523D01*
X137483630Y-72214285D02*
X137483630Y-71738095D01*
X137959821Y-71690476D01*
X137912202Y-71738095D01*
X137864583Y-71833333D01*
X137864583Y-72071428D01*
X137912202Y-72166666D01*
X137959821Y-72214285D01*
X138055059Y-72261904D01*
X138293154Y-72261904D01*
X138388392Y-72214285D01*
X138436011Y-72166666D01*
X138483630Y-72071428D01*
X138483630Y-71833333D01*
X138436011Y-71738095D01*
X138388392Y-71690476D01*
%TO.C,R32*%
X145642857Y-41452380D02*
X145976190Y-40976190D01*
X146214285Y-41452380D02*
X146214285Y-40452380D01*
X145833333Y-40452380D01*
X145738095Y-40500000D01*
X145690476Y-40547619D01*
X145642857Y-40642857D01*
X145642857Y-40785714D01*
X145690476Y-40880952D01*
X145738095Y-40928571D01*
X145833333Y-40976190D01*
X146214285Y-40976190D01*
X145309523Y-40452380D02*
X144690476Y-40452380D01*
X145023809Y-40833333D01*
X144880952Y-40833333D01*
X144785714Y-40880952D01*
X144738095Y-40928571D01*
X144690476Y-41023809D01*
X144690476Y-41261904D01*
X144738095Y-41357142D01*
X144785714Y-41404761D01*
X144880952Y-41452380D01*
X145166666Y-41452380D01*
X145261904Y-41404761D01*
X145309523Y-41357142D01*
X144309523Y-40547619D02*
X144261904Y-40500000D01*
X144166666Y-40452380D01*
X143928571Y-40452380D01*
X143833333Y-40500000D01*
X143785714Y-40547619D01*
X143738095Y-40642857D01*
X143738095Y-40738095D01*
X143785714Y-40880952D01*
X144357142Y-41452380D01*
X143738095Y-41452380D01*
%TO.C,R2*%
X145666666Y-37452380D02*
X146000000Y-36976190D01*
X146238095Y-37452380D02*
X146238095Y-36452380D01*
X145857142Y-36452380D01*
X145761904Y-36500000D01*
X145714285Y-36547619D01*
X145666666Y-36642857D01*
X145666666Y-36785714D01*
X145714285Y-36880952D01*
X145761904Y-36928571D01*
X145857142Y-36976190D01*
X146238095Y-36976190D01*
X145285714Y-36547619D02*
X145238095Y-36500000D01*
X145142857Y-36452380D01*
X144904761Y-36452380D01*
X144809523Y-36500000D01*
X144761904Y-36547619D01*
X144714285Y-36642857D01*
X144714285Y-36738095D01*
X144761904Y-36880952D01*
X145333333Y-37452380D01*
X144714285Y-37452380D01*
%TO.C,Q8*%
X135078869Y-59404761D02*
X135031250Y-59309523D01*
X134936011Y-59214285D01*
X134793154Y-59071428D01*
X134745535Y-58976190D01*
X134745535Y-58880952D01*
X134983630Y-58928571D02*
X134936011Y-58833333D01*
X134840773Y-58738095D01*
X134650297Y-58690476D01*
X134316964Y-58690476D01*
X134126488Y-58738095D01*
X134031250Y-58833333D01*
X133983630Y-58928571D01*
X133983630Y-59119047D01*
X134031250Y-59214285D01*
X134126488Y-59309523D01*
X134316964Y-59357142D01*
X134650297Y-59357142D01*
X134840773Y-59309523D01*
X134936011Y-59214285D01*
X134983630Y-59119047D01*
X134983630Y-58928571D01*
X134412202Y-59928571D02*
X134364583Y-59833333D01*
X134316964Y-59785714D01*
X134221726Y-59738095D01*
X134174107Y-59738095D01*
X134078869Y-59785714D01*
X134031250Y-59833333D01*
X133983630Y-59928571D01*
X133983630Y-60119047D01*
X134031250Y-60214285D01*
X134078869Y-60261904D01*
X134174107Y-60309523D01*
X134221726Y-60309523D01*
X134316964Y-60261904D01*
X134364583Y-60214285D01*
X134412202Y-60119047D01*
X134412202Y-59928571D01*
X134459821Y-59833333D01*
X134507440Y-59785714D01*
X134602678Y-59738095D01*
X134793154Y-59738095D01*
X134888392Y-59785714D01*
X134936011Y-59833333D01*
X134983630Y-59928571D01*
X134983630Y-60119047D01*
X134936011Y-60214285D01*
X134888392Y-60261904D01*
X134793154Y-60309523D01*
X134602678Y-60309523D01*
X134507440Y-60261904D01*
X134459821Y-60214285D01*
X134412202Y-60119047D01*
%TO.C,BT1*%
X130785714Y-76178571D02*
X130642857Y-76226190D01*
X130595238Y-76273809D01*
X130547619Y-76369047D01*
X130547619Y-76511904D01*
X130595238Y-76607142D01*
X130642857Y-76654761D01*
X130738095Y-76702380D01*
X131119047Y-76702380D01*
X131119047Y-75702380D01*
X130785714Y-75702380D01*
X130690476Y-75750000D01*
X130642857Y-75797619D01*
X130595238Y-75892857D01*
X130595238Y-75988095D01*
X130642857Y-76083333D01*
X130690476Y-76130952D01*
X130785714Y-76178571D01*
X131119047Y-76178571D01*
X130261904Y-75702380D02*
X129690476Y-75702380D01*
X129976190Y-76702380D02*
X129976190Y-75702380D01*
X128833333Y-76702380D02*
X129404761Y-76702380D01*
X129119047Y-76702380D02*
X129119047Y-75702380D01*
X129214285Y-75845238D01*
X129309523Y-75940476D01*
X129404761Y-75988095D01*
D10*
X112483809Y-76340714D02*
X111516190Y-76340714D01*
X112000000Y-76824523D02*
X112000000Y-75856904D01*
X121483809Y-76340714D02*
X120516190Y-76340714D01*
D12*
%TO.C,R12*%
X106932142Y-57857142D02*
X106455952Y-57523809D01*
X106932142Y-57285714D02*
X105932142Y-57285714D01*
X105932142Y-57666666D01*
X105979762Y-57761904D01*
X106027381Y-57809523D01*
X106122619Y-57857142D01*
X106265476Y-57857142D01*
X106360714Y-57809523D01*
X106408333Y-57761904D01*
X106455952Y-57666666D01*
X106455952Y-57285714D01*
X106932142Y-58809523D02*
X106932142Y-58238095D01*
X106932142Y-58523809D02*
X105932142Y-58523809D01*
X106075000Y-58428571D01*
X106170238Y-58333333D01*
X106217857Y-58238095D01*
X106027381Y-59190476D02*
X105979762Y-59238095D01*
X105932142Y-59333333D01*
X105932142Y-59571428D01*
X105979762Y-59666666D01*
X106027381Y-59714285D01*
X106122619Y-59761904D01*
X106217857Y-59761904D01*
X106360714Y-59714285D01*
X106932142Y-59142857D01*
X106932142Y-59761904D01*
%TO.C,C10*%
X113607142Y-68357142D02*
X113654761Y-68309523D01*
X113702380Y-68166666D01*
X113702380Y-68071428D01*
X113654761Y-67928571D01*
X113559523Y-67833333D01*
X113464285Y-67785714D01*
X113273809Y-67738095D01*
X113130952Y-67738095D01*
X112940476Y-67785714D01*
X112845238Y-67833333D01*
X112750000Y-67928571D01*
X112702380Y-68071428D01*
X112702380Y-68166666D01*
X112750000Y-68309523D01*
X112797619Y-68357142D01*
X113702380Y-69309523D02*
X113702380Y-68738095D01*
X113702380Y-69023809D02*
X112702380Y-69023809D01*
X112845238Y-68928571D01*
X112940476Y-68833333D01*
X112988095Y-68738095D01*
X112702380Y-69928571D02*
X112702380Y-70023809D01*
X112750000Y-70119047D01*
X112797619Y-70166666D01*
X112892857Y-70214285D01*
X113083333Y-70261904D01*
X113321428Y-70261904D01*
X113511904Y-70214285D01*
X113607142Y-70166666D01*
X113654761Y-70119047D01*
X113702380Y-70023809D01*
X113702380Y-69928571D01*
X113654761Y-69833333D01*
X113607142Y-69785714D01*
X113511904Y-69738095D01*
X113321428Y-69690476D01*
X113083333Y-69690476D01*
X112892857Y-69738095D01*
X112797619Y-69785714D01*
X112750000Y-69833333D01*
X112702380Y-69928571D01*
%TO.C,C5*%
X145666666Y-53357142D02*
X145714285Y-53404761D01*
X145857142Y-53452380D01*
X145952380Y-53452380D01*
X146095238Y-53404761D01*
X146190476Y-53309523D01*
X146238095Y-53214285D01*
X146285714Y-53023809D01*
X146285714Y-52880952D01*
X146238095Y-52690476D01*
X146190476Y-52595238D01*
X146095238Y-52500000D01*
X145952380Y-52452380D01*
X145857142Y-52452380D01*
X145714285Y-52500000D01*
X145666666Y-52547619D01*
X144761904Y-52452380D02*
X145238095Y-52452380D01*
X145285714Y-52928571D01*
X145238095Y-52880952D01*
X145142857Y-52833333D01*
X144904761Y-52833333D01*
X144809523Y-52880952D01*
X144761904Y-52928571D01*
X144714285Y-53023809D01*
X144714285Y-53261904D01*
X144761904Y-53357142D01*
X144809523Y-53404761D01*
X144904761Y-53452380D01*
X145142857Y-53452380D01*
X145238095Y-53404761D01*
X145285714Y-53357142D01*
%TO.C,R27*%
X140483630Y-59357142D02*
X140007440Y-59023809D01*
X140483630Y-58785714D02*
X139483630Y-58785714D01*
X139483630Y-59166666D01*
X139531250Y-59261904D01*
X139578869Y-59309523D01*
X139674107Y-59357142D01*
X139816964Y-59357142D01*
X139912202Y-59309523D01*
X139959821Y-59261904D01*
X140007440Y-59166666D01*
X140007440Y-58785714D01*
X139578869Y-59738095D02*
X139531250Y-59785714D01*
X139483630Y-59880952D01*
X139483630Y-60119047D01*
X139531250Y-60214285D01*
X139578869Y-60261904D01*
X139674107Y-60309523D01*
X139769345Y-60309523D01*
X139912202Y-60261904D01*
X140483630Y-59690476D01*
X140483630Y-60309523D01*
X139483630Y-60642857D02*
X139483630Y-61309523D01*
X140483630Y-60880952D01*
%TO.C,U3*%
X110932142Y-57238095D02*
X111741666Y-57238095D01*
X111836904Y-57285714D01*
X111884523Y-57333333D01*
X111932142Y-57428571D01*
X111932142Y-57619047D01*
X111884523Y-57714285D01*
X111836904Y-57761904D01*
X111741666Y-57809523D01*
X110932142Y-57809523D01*
X110932142Y-58190476D02*
X110932142Y-58809523D01*
X111313095Y-58476190D01*
X111313095Y-58619047D01*
X111360714Y-58714285D01*
X111408333Y-58761904D01*
X111503571Y-58809523D01*
X111741666Y-58809523D01*
X111836904Y-58761904D01*
X111884523Y-58714285D01*
X111932142Y-58619047D01*
X111932142Y-58333333D01*
X111884523Y-58238095D01*
X111836904Y-58190476D01*
%TO.C,Q6*%
X144047619Y-70404761D02*
X144000000Y-70309523D01*
X143904761Y-70214285D01*
X143761904Y-70071428D01*
X143714285Y-69976190D01*
X143714285Y-69880952D01*
X143952380Y-69928571D02*
X143904761Y-69833333D01*
X143809523Y-69738095D01*
X143619047Y-69690476D01*
X143285714Y-69690476D01*
X143095238Y-69738095D01*
X143000000Y-69833333D01*
X142952380Y-69928571D01*
X142952380Y-70119047D01*
X143000000Y-70214285D01*
X143095238Y-70309523D01*
X143285714Y-70357142D01*
X143619047Y-70357142D01*
X143809523Y-70309523D01*
X143904761Y-70214285D01*
X143952380Y-70119047D01*
X143952380Y-69928571D01*
X142952380Y-71214285D02*
X142952380Y-71023809D01*
X143000000Y-70928571D01*
X143047619Y-70880952D01*
X143190476Y-70785714D01*
X143380952Y-70738095D01*
X143761904Y-70738095D01*
X143857142Y-70785714D01*
X143904761Y-70833333D01*
X143952380Y-70928571D01*
X143952380Y-71119047D01*
X143904761Y-71214285D01*
X143857142Y-71261904D01*
X143761904Y-71309523D01*
X143523809Y-71309523D01*
X143428571Y-71261904D01*
X143380952Y-71214285D01*
X143333333Y-71119047D01*
X143333333Y-70928571D01*
X143380952Y-70833333D01*
X143428571Y-70785714D01*
X143523809Y-70738095D01*
%TO.C,R9*%
X114666666Y-41452380D02*
X115000000Y-40976190D01*
X115238095Y-41452380D02*
X115238095Y-40452380D01*
X114857142Y-40452380D01*
X114761904Y-40500000D01*
X114714285Y-40547619D01*
X114666666Y-40642857D01*
X114666666Y-40785714D01*
X114714285Y-40880952D01*
X114761904Y-40928571D01*
X114857142Y-40976190D01*
X115238095Y-40976190D01*
X114190476Y-41452380D02*
X114000000Y-41452380D01*
X113904761Y-41404761D01*
X113857142Y-41357142D01*
X113761904Y-41214285D01*
X113714285Y-41023809D01*
X113714285Y-40642857D01*
X113761904Y-40547619D01*
X113809523Y-40500000D01*
X113904761Y-40452380D01*
X114095238Y-40452380D01*
X114190476Y-40500000D01*
X114238095Y-40547619D01*
X114285714Y-40642857D01*
X114285714Y-40880952D01*
X114238095Y-40976190D01*
X114190476Y-41023809D01*
X114095238Y-41071428D01*
X113904761Y-41071428D01*
X113809523Y-41023809D01*
X113761904Y-40976190D01*
X113714285Y-40880952D01*
%TO.C,R6*%
X114666666Y-51452380D02*
X115000000Y-50976190D01*
X115238095Y-51452380D02*
X115238095Y-50452380D01*
X114857142Y-50452380D01*
X114761904Y-50500000D01*
X114714285Y-50547619D01*
X114666666Y-50642857D01*
X114666666Y-50785714D01*
X114714285Y-50880952D01*
X114761904Y-50928571D01*
X114857142Y-50976190D01*
X115238095Y-50976190D01*
X113809523Y-50452380D02*
X114000000Y-50452380D01*
X114095238Y-50500000D01*
X114142857Y-50547619D01*
X114238095Y-50690476D01*
X114285714Y-50880952D01*
X114285714Y-51261904D01*
X114238095Y-51357142D01*
X114190476Y-51404761D01*
X114095238Y-51452380D01*
X113904761Y-51452380D01*
X113809523Y-51404761D01*
X113761904Y-51357142D01*
X113714285Y-51261904D01*
X113714285Y-51023809D01*
X113761904Y-50928571D01*
X113809523Y-50880952D01*
X113904761Y-50833333D01*
X114095238Y-50833333D01*
X114190476Y-50880952D01*
X114238095Y-50928571D01*
X114285714Y-51023809D01*
%TO.C,C3*%
X145666666Y-39357142D02*
X145714285Y-39404761D01*
X145857142Y-39452380D01*
X145952380Y-39452380D01*
X146095238Y-39404761D01*
X146190476Y-39309523D01*
X146238095Y-39214285D01*
X146285714Y-39023809D01*
X146285714Y-38880952D01*
X146238095Y-38690476D01*
X146190476Y-38595238D01*
X146095238Y-38500000D01*
X145952380Y-38452380D01*
X145857142Y-38452380D01*
X145714285Y-38500000D01*
X145666666Y-38547619D01*
X145333333Y-38452380D02*
X144714285Y-38452380D01*
X145047619Y-38833333D01*
X144904761Y-38833333D01*
X144809523Y-38880952D01*
X144761904Y-38928571D01*
X144714285Y-39023809D01*
X144714285Y-39261904D01*
X144761904Y-39357142D01*
X144809523Y-39404761D01*
X144904761Y-39452380D01*
X145190476Y-39452380D01*
X145285714Y-39404761D01*
X145333333Y-39357142D01*
%TO.C,R23*%
X138483630Y-59357142D02*
X138007440Y-59023809D01*
X138483630Y-58785714D02*
X137483630Y-58785714D01*
X137483630Y-59166666D01*
X137531250Y-59261904D01*
X137578869Y-59309523D01*
X137674107Y-59357142D01*
X137816964Y-59357142D01*
X137912202Y-59309523D01*
X137959821Y-59261904D01*
X138007440Y-59166666D01*
X138007440Y-58785714D01*
X137578869Y-59738095D02*
X137531250Y-59785714D01*
X137483630Y-59880952D01*
X137483630Y-60119047D01*
X137531250Y-60214285D01*
X137578869Y-60261904D01*
X137674107Y-60309523D01*
X137769345Y-60309523D01*
X137912202Y-60261904D01*
X138483630Y-59690476D01*
X138483630Y-60309523D01*
X137483630Y-60642857D02*
X137483630Y-61261904D01*
X137864583Y-60928571D01*
X137864583Y-61071428D01*
X137912202Y-61166666D01*
X137959821Y-61214285D01*
X138055059Y-61261904D01*
X138293154Y-61261904D01*
X138388392Y-61214285D01*
X138436011Y-61166666D01*
X138483630Y-61071428D01*
X138483630Y-60785714D01*
X138436011Y-60690476D01*
X138388392Y-60642857D01*
%TO.C,R34*%
X131452380Y-70357142D02*
X130976190Y-70023809D01*
X131452380Y-69785714D02*
X130452380Y-69785714D01*
X130452380Y-70166666D01*
X130500000Y-70261904D01*
X130547619Y-70309523D01*
X130642857Y-70357142D01*
X130785714Y-70357142D01*
X130880952Y-70309523D01*
X130928571Y-70261904D01*
X130976190Y-70166666D01*
X130976190Y-69785714D01*
X130452380Y-70690476D02*
X130452380Y-71309523D01*
X130833333Y-70976190D01*
X130833333Y-71119047D01*
X130880952Y-71214285D01*
X130928571Y-71261904D01*
X131023809Y-71309523D01*
X131261904Y-71309523D01*
X131357142Y-71261904D01*
X131404761Y-71214285D01*
X131452380Y-71119047D01*
X131452380Y-70833333D01*
X131404761Y-70738095D01*
X131357142Y-70690476D01*
X130785714Y-72166666D02*
X131452380Y-72166666D01*
X130404761Y-71928571D02*
X131119047Y-71690476D01*
X131119047Y-72309523D01*
%TO.C,Q9*%
X144078869Y-59404761D02*
X144031250Y-59309523D01*
X143936011Y-59214285D01*
X143793154Y-59071428D01*
X143745535Y-58976190D01*
X143745535Y-58880952D01*
X143983630Y-58928571D02*
X143936011Y-58833333D01*
X143840773Y-58738095D01*
X143650297Y-58690476D01*
X143316964Y-58690476D01*
X143126488Y-58738095D01*
X143031250Y-58833333D01*
X142983630Y-58928571D01*
X142983630Y-59119047D01*
X143031250Y-59214285D01*
X143126488Y-59309523D01*
X143316964Y-59357142D01*
X143650297Y-59357142D01*
X143840773Y-59309523D01*
X143936011Y-59214285D01*
X143983630Y-59119047D01*
X143983630Y-58928571D01*
X143983630Y-59833333D02*
X143983630Y-60023809D01*
X143936011Y-60119047D01*
X143888392Y-60166666D01*
X143745535Y-60261904D01*
X143555059Y-60309523D01*
X143174107Y-60309523D01*
X143078869Y-60261904D01*
X143031250Y-60214285D01*
X142983630Y-60119047D01*
X142983630Y-59928571D01*
X143031250Y-59833333D01*
X143078869Y-59785714D01*
X143174107Y-59738095D01*
X143412202Y-59738095D01*
X143507440Y-59785714D01*
X143555059Y-59833333D01*
X143602678Y-59928571D01*
X143602678Y-60119047D01*
X143555059Y-60214285D01*
X143507440Y-60261904D01*
X143412202Y-60309523D01*
%TO.C,R16*%
X140483630Y-70357142D02*
X140007440Y-70023809D01*
X140483630Y-69785714D02*
X139483630Y-69785714D01*
X139483630Y-70166666D01*
X139531250Y-70261904D01*
X139578869Y-70309523D01*
X139674107Y-70357142D01*
X139816964Y-70357142D01*
X139912202Y-70309523D01*
X139959821Y-70261904D01*
X140007440Y-70166666D01*
X140007440Y-69785714D01*
X140483630Y-71309523D02*
X140483630Y-70738095D01*
X140483630Y-71023809D02*
X139483630Y-71023809D01*
X139626488Y-70928571D01*
X139721726Y-70833333D01*
X139769345Y-70738095D01*
X139483630Y-72166666D02*
X139483630Y-71976190D01*
X139531250Y-71880952D01*
X139578869Y-71833333D01*
X139721726Y-71738095D01*
X139912202Y-71690476D01*
X140293154Y-71690476D01*
X140388392Y-71738095D01*
X140436011Y-71785714D01*
X140483630Y-71880952D01*
X140483630Y-72071428D01*
X140436011Y-72166666D01*
X140388392Y-72214285D01*
X140293154Y-72261904D01*
X140055059Y-72261904D01*
X139959821Y-72214285D01*
X139912202Y-72166666D01*
X139864583Y-72071428D01*
X139864583Y-71880952D01*
X139912202Y-71785714D01*
X139959821Y-71738095D01*
X140055059Y-71690476D01*
%TO.C,Q7*%
X135047619Y-70404761D02*
X135000000Y-70309523D01*
X134904761Y-70214285D01*
X134761904Y-70071428D01*
X134714285Y-69976190D01*
X134714285Y-69880952D01*
X134952380Y-69928571D02*
X134904761Y-69833333D01*
X134809523Y-69738095D01*
X134619047Y-69690476D01*
X134285714Y-69690476D01*
X134095238Y-69738095D01*
X134000000Y-69833333D01*
X133952380Y-69928571D01*
X133952380Y-70119047D01*
X134000000Y-70214285D01*
X134095238Y-70309523D01*
X134285714Y-70357142D01*
X134619047Y-70357142D01*
X134809523Y-70309523D01*
X134904761Y-70214285D01*
X134952380Y-70119047D01*
X134952380Y-69928571D01*
X133952380Y-70690476D02*
X133952380Y-71357142D01*
X134952380Y-70928571D01*
%TO.C,R31*%
X145642857Y-43452380D02*
X145976190Y-42976190D01*
X146214285Y-43452380D02*
X146214285Y-42452380D01*
X145833333Y-42452380D01*
X145738095Y-42500000D01*
X145690476Y-42547619D01*
X145642857Y-42642857D01*
X145642857Y-42785714D01*
X145690476Y-42880952D01*
X145738095Y-42928571D01*
X145833333Y-42976190D01*
X146214285Y-42976190D01*
X145309523Y-42452380D02*
X144690476Y-42452380D01*
X145023809Y-42833333D01*
X144880952Y-42833333D01*
X144785714Y-42880952D01*
X144738095Y-42928571D01*
X144690476Y-43023809D01*
X144690476Y-43261904D01*
X144738095Y-43357142D01*
X144785714Y-43404761D01*
X144880952Y-43452380D01*
X145166666Y-43452380D01*
X145261904Y-43404761D01*
X145309523Y-43357142D01*
X143738095Y-43452380D02*
X144309523Y-43452380D01*
X144023809Y-43452380D02*
X144023809Y-42452380D01*
X144119047Y-42595238D01*
X144214285Y-42690476D01*
X144309523Y-42738095D01*
D13*
%TO.C,C35*%
X151096250Y-63015000D02*
X152966250Y-63015000D01*
X151096250Y-67100000D02*
X151096250Y-63015000D01*
X152966250Y-63015000D02*
X152966250Y-67100000D01*
%TO.C,C34*%
X148596250Y-63015000D02*
X150466250Y-63015000D01*
X148596250Y-67100000D02*
X148596250Y-63015000D01*
X150466250Y-63015000D02*
X150466250Y-67100000D01*
%TO.C,C33*%
X153596250Y-63015000D02*
X155466250Y-63015000D01*
X153596250Y-67100000D02*
X153596250Y-63015000D01*
X155466250Y-63015000D02*
X155466250Y-67100000D01*
%TO.C,C11*%
X120060000Y-64985000D02*
X118190000Y-64985000D01*
X120060000Y-60900000D02*
X120060000Y-64985000D01*
X118190000Y-64985000D02*
X118190000Y-60900000D01*
%TO.C,C9*%
X118190000Y-66015000D02*
X120060000Y-66015000D01*
X118190000Y-70100000D02*
X118190000Y-66015000D01*
X120060000Y-66015000D02*
X120060000Y-70100000D01*
%TO.C,R14*%
X117002262Y-62245276D02*
X117002262Y-62754724D01*
X115957262Y-62245276D02*
X115957262Y-62754724D01*
%TO.C,R3*%
X142342224Y-45522500D02*
X141832776Y-45522500D01*
X142342224Y-44477500D02*
X141832776Y-44477500D01*
%TO.C,R29*%
X147553750Y-65245276D02*
X147553750Y-65754724D01*
X146508750Y-65245276D02*
X146508750Y-65754724D01*
%TO.C,U4*%
X120962500Y-68910000D02*
X126972500Y-68910000D01*
X123212500Y-62090000D02*
X126972500Y-62090000D01*
X126972500Y-68910000D02*
X126972500Y-67650000D01*
X126972500Y-62090000D02*
X126972500Y-63350000D01*
%TO.C,R4*%
X117745276Y-46477500D02*
X118254724Y-46477500D01*
X117745276Y-47522500D02*
X118254724Y-47522500D01*
%TO.C,R10*%
X117745276Y-39522500D02*
X118254724Y-39522500D01*
X117745276Y-38477500D02*
X118254724Y-38477500D01*
%TO.C,U2*%
X138120000Y-38000000D02*
X138730000Y-38000000D01*
X138120000Y-54620000D02*
X138120000Y-54000000D01*
X138120000Y-30380000D02*
X121880000Y-30380000D01*
X121880000Y-54000000D02*
X121880000Y-54620000D01*
X138120000Y-38000000D02*
X138120000Y-30380000D01*
X121880000Y-30380000D02*
X121880000Y-38000000D01*
X121880000Y-54620000D02*
X124000000Y-54620000D01*
X136000000Y-54620000D02*
X138120000Y-54620000D01*
%TO.C,G\u002A\u002A\u002A*%
G36*
X155870295Y-49795628D02*
G01*
X156034301Y-49959269D01*
X156178011Y-50109265D01*
X156233333Y-50176628D01*
X156226440Y-50178820D01*
X156101873Y-50185989D01*
X155840040Y-50192175D01*
X155465850Y-50197029D01*
X155004214Y-50200198D01*
X154480038Y-50201333D01*
X152726743Y-50201333D01*
X153100667Y-49820333D01*
X153474590Y-49439333D01*
X155507257Y-49439333D01*
X155870295Y-49795628D01*
G37*
G36*
X151746000Y-49817843D02*
G01*
X151036021Y-49107864D01*
X151027473Y-48046421D01*
X151018926Y-46984979D01*
X151382463Y-46628194D01*
X151746000Y-46271410D01*
X151746000Y-49817843D01*
G37*
G36*
X150959628Y-49795628D02*
G01*
X151123634Y-49959269D01*
X151267345Y-50109265D01*
X151322667Y-50176628D01*
X151315773Y-50178820D01*
X151191206Y-50185989D01*
X150929373Y-50192175D01*
X150555184Y-50197029D01*
X150093547Y-50200198D01*
X149569372Y-50201333D01*
X147816077Y-50201333D01*
X148563923Y-49439333D01*
X150596590Y-49439333D01*
X150959628Y-49795628D01*
G37*
G36*
X150610077Y-46645333D02*
G01*
X148563923Y-46645333D01*
X147816077Y-45883333D01*
X151357923Y-45883333D01*
X150610077Y-46645333D01*
G37*
G36*
X153069721Y-51899552D02*
G01*
X153058333Y-54008864D01*
X152698500Y-54368687D01*
X152338667Y-54728509D01*
X152338667Y-51182076D01*
X153069721Y-51899552D01*
G37*
G36*
X151746000Y-44907176D02*
G01*
X151033138Y-44194314D01*
X151025009Y-43135316D01*
X151016881Y-42076319D01*
X151381440Y-41718531D01*
X151746000Y-41360743D01*
X151746000Y-44907176D01*
G37*
G36*
X148190000Y-42108589D02*
G01*
X148190000Y-44154743D01*
X147428000Y-44902589D01*
X147428000Y-41360743D01*
X148190000Y-42108589D01*
G37*
G36*
X155894667Y-51175000D02*
G01*
X155520743Y-51556000D01*
X153474590Y-51556000D01*
X153100667Y-51175000D01*
X152726743Y-50794000D01*
X156268590Y-50794000D01*
X155894667Y-51175000D01*
G37*
G36*
X155870295Y-54706294D02*
G01*
X156034301Y-54869936D01*
X156178011Y-55019932D01*
X156233333Y-55087294D01*
X156226440Y-55089487D01*
X156101873Y-55096655D01*
X155840040Y-55102842D01*
X155465850Y-55107695D01*
X155004214Y-55110865D01*
X154480038Y-55112000D01*
X152726743Y-55112000D01*
X153100667Y-54731000D01*
X153474590Y-54350000D01*
X155507257Y-54350000D01*
X155870295Y-54706294D01*
G37*
G36*
X156656667Y-54723923D02*
G01*
X156275667Y-54350000D01*
X155894667Y-53976076D01*
X155894667Y-51929923D01*
X156275667Y-51556000D01*
X156656667Y-51182076D01*
X156656667Y-54723923D01*
G37*
G36*
X156656667Y-49813256D02*
G01*
X155894667Y-49065410D01*
X155894667Y-47019256D01*
X156656667Y-46271410D01*
X156656667Y-49813256D01*
G37*
G36*
X155386667Y-48931333D02*
G01*
X153608667Y-48931333D01*
X153608667Y-47153333D01*
X155386667Y-47153333D01*
X155386667Y-48931333D01*
G37*
G36*
X150476000Y-48931333D02*
G01*
X148698000Y-48931333D01*
X148698000Y-47153333D01*
X150476000Y-47153333D01*
X150476000Y-48931333D01*
G37*
G36*
X150476000Y-44020666D02*
G01*
X148698000Y-44020666D01*
X148698000Y-42242666D01*
X150476000Y-42242666D01*
X150476000Y-44020666D01*
G37*
G36*
X155894667Y-46264333D02*
G01*
X155520743Y-46645333D01*
X153474590Y-46645333D01*
X153100667Y-46264333D01*
X152726743Y-45883333D01*
X156268590Y-45883333D01*
X155894667Y-46264333D01*
G37*
G36*
X153063251Y-46982536D02*
G01*
X153060792Y-48040341D01*
X153058333Y-49098145D01*
X152338667Y-49817843D01*
X152338667Y-46271410D01*
X153063251Y-46982536D01*
G37*
G36*
X150610077Y-41734666D02*
G01*
X148563923Y-41734666D01*
X147816077Y-40972666D01*
X151357923Y-40972666D01*
X150610077Y-41734666D01*
G37*
G36*
X150959628Y-44884961D02*
G01*
X151123634Y-45048602D01*
X151267345Y-45198599D01*
X151322667Y-45265961D01*
X151315773Y-45268153D01*
X151191206Y-45275322D01*
X150929373Y-45281509D01*
X150555184Y-45286362D01*
X150093547Y-45289532D01*
X149569372Y-45290666D01*
X147816077Y-45290666D01*
X148563923Y-44528666D01*
X150596590Y-44528666D01*
X150959628Y-44884961D01*
G37*
G36*
X155386667Y-53842000D02*
G01*
X153608667Y-53842000D01*
X153608667Y-52064000D01*
X155386667Y-52064000D01*
X155386667Y-53842000D01*
G37*
G36*
X148190000Y-47019256D02*
G01*
X148190000Y-49065410D01*
X147428000Y-49813256D01*
X147428000Y-46271410D01*
X148190000Y-47019256D01*
G37*
%TO.C,R21*%
X130508750Y-63245276D02*
X130508750Y-63754724D01*
X131553750Y-63245276D02*
X131553750Y-63754724D01*
%TO.C,C8*%
X141853733Y-55510000D02*
X142146267Y-55510000D01*
X141853733Y-54490000D02*
X142146267Y-54490000D01*
%TO.C,R11*%
X113957262Y-62754724D02*
X113957262Y-62245276D01*
X115002262Y-62754724D02*
X115002262Y-62245276D01*
%TO.C,R5*%
X117745276Y-49522500D02*
X118254724Y-49522500D01*
X117745276Y-48477500D02*
X118254724Y-48477500D01*
%TO.C,C4*%
X109583495Y-65760000D02*
X109876029Y-65760000D01*
X109583495Y-64740000D02*
X109876029Y-64740000D01*
%TO.C,R8*%
X109002262Y-62754724D02*
X109002262Y-62245276D01*
X107957262Y-62754724D02*
X107957262Y-62245276D01*
%TO.C,R25*%
X137508750Y-67754724D02*
X137508750Y-67245276D01*
X138553750Y-67754724D02*
X138553750Y-67245276D01*
%TO.C,R32*%
X142342224Y-40477500D02*
X141832776Y-40477500D01*
X142342224Y-41522500D02*
X141832776Y-41522500D01*
%TO.C,R2*%
X142342224Y-36477500D02*
X141832776Y-36477500D01*
X142342224Y-37522500D02*
X141832776Y-37522500D01*
%TO.C,Q8*%
X134531250Y-61940000D02*
X133881250Y-61940000D01*
X134531250Y-61940000D02*
X136206250Y-61940000D01*
X134531250Y-65060000D02*
X133881250Y-65060000D01*
X134531250Y-65060000D02*
X135181250Y-65060000D01*
%TO.C,BT1*%
X109500000Y-74750000D02*
X150500000Y-74750000D01*
X150500000Y-74750000D02*
X150500000Y-145750000D01*
X150500000Y-145750000D02*
X109500000Y-145750000D01*
X109500000Y-145750000D02*
X109500000Y-74750000D01*
%TO.C,R12*%
X107002262Y-62754724D02*
X107002262Y-62245276D01*
X105957262Y-62754724D02*
X105957262Y-62245276D01*
%TO.C,C10*%
X113376029Y-64740000D02*
X113083495Y-64740000D01*
X113376029Y-65760000D02*
X113083495Y-65760000D01*
%TO.C,C5*%
X142146267Y-52490000D02*
X141853733Y-52490000D01*
X142146267Y-53510000D02*
X141853733Y-53510000D01*
%TO.C,R27*%
X139508750Y-63245276D02*
X139508750Y-63754724D01*
X140553750Y-63245276D02*
X140553750Y-63754724D01*
%TO.C,U3*%
X111975000Y-61880000D02*
X110975000Y-61880000D01*
X109975000Y-64120000D02*
X111975000Y-64120000D01*
%TO.C,G\u002A\u002A\u002A*%
G36*
X111870295Y-49795628D02*
G01*
X112034301Y-49959269D01*
X112178011Y-50109265D01*
X112233333Y-50176628D01*
X112226440Y-50178820D01*
X112101873Y-50185989D01*
X111840040Y-50192175D01*
X111465850Y-50197029D01*
X111004214Y-50200198D01*
X110480038Y-50201333D01*
X108726743Y-50201333D01*
X109100667Y-49820333D01*
X109474590Y-49439333D01*
X111507257Y-49439333D01*
X111870295Y-49795628D01*
G37*
G36*
X107746000Y-49817843D02*
G01*
X107036021Y-49107864D01*
X107027473Y-48046421D01*
X107018926Y-46984979D01*
X107382463Y-46628194D01*
X107746000Y-46271410D01*
X107746000Y-49817843D01*
G37*
G36*
X106959628Y-49795628D02*
G01*
X107123634Y-49959269D01*
X107267345Y-50109265D01*
X107322667Y-50176628D01*
X107315773Y-50178820D01*
X107191206Y-50185989D01*
X106929373Y-50192175D01*
X106555184Y-50197029D01*
X106093547Y-50200198D01*
X105569372Y-50201333D01*
X103816077Y-50201333D01*
X104563923Y-49439333D01*
X106596590Y-49439333D01*
X106959628Y-49795628D01*
G37*
G36*
X106610077Y-46645333D02*
G01*
X104563923Y-46645333D01*
X103816077Y-45883333D01*
X107357923Y-45883333D01*
X106610077Y-46645333D01*
G37*
G36*
X109069721Y-51899552D02*
G01*
X109058333Y-54008864D01*
X108698500Y-54368687D01*
X108338667Y-54728509D01*
X108338667Y-51182076D01*
X109069721Y-51899552D01*
G37*
G36*
X107746000Y-44907176D02*
G01*
X107033138Y-44194314D01*
X107025009Y-43135316D01*
X107016881Y-42076319D01*
X107381440Y-41718531D01*
X107746000Y-41360743D01*
X107746000Y-44907176D01*
G37*
G36*
X104190000Y-42108589D02*
G01*
X104190000Y-44154743D01*
X103428000Y-44902589D01*
X103428000Y-41360743D01*
X104190000Y-42108589D01*
G37*
G36*
X111894667Y-51175000D02*
G01*
X111520743Y-51556000D01*
X109474590Y-51556000D01*
X109100667Y-51175000D01*
X108726743Y-50794000D01*
X112268590Y-50794000D01*
X111894667Y-51175000D01*
G37*
G36*
X111870295Y-54706294D02*
G01*
X112034301Y-54869936D01*
X112178011Y-55019932D01*
X112233333Y-55087294D01*
X112226440Y-55089487D01*
X112101873Y-55096655D01*
X111840040Y-55102842D01*
X111465850Y-55107695D01*
X111004214Y-55110865D01*
X110480038Y-55112000D01*
X108726743Y-55112000D01*
X109100667Y-54731000D01*
X109474590Y-54350000D01*
X111507257Y-54350000D01*
X111870295Y-54706294D01*
G37*
G36*
X112656667Y-54723923D02*
G01*
X112275667Y-54350000D01*
X111894667Y-53976076D01*
X111894667Y-51929923D01*
X112275667Y-51556000D01*
X112656667Y-51182076D01*
X112656667Y-54723923D01*
G37*
G36*
X112656667Y-49813256D02*
G01*
X111894667Y-49065410D01*
X111894667Y-47019256D01*
X112656667Y-46271410D01*
X112656667Y-49813256D01*
G37*
G36*
X111386667Y-48931333D02*
G01*
X109608667Y-48931333D01*
X109608667Y-47153333D01*
X111386667Y-47153333D01*
X111386667Y-48931333D01*
G37*
G36*
X106476000Y-48931333D02*
G01*
X104698000Y-48931333D01*
X104698000Y-47153333D01*
X106476000Y-47153333D01*
X106476000Y-48931333D01*
G37*
G36*
X106476000Y-44020666D02*
G01*
X104698000Y-44020666D01*
X104698000Y-42242666D01*
X106476000Y-42242666D01*
X106476000Y-44020666D01*
G37*
G36*
X111894667Y-46264333D02*
G01*
X111520743Y-46645333D01*
X109474590Y-46645333D01*
X109100667Y-46264333D01*
X108726743Y-45883333D01*
X112268590Y-45883333D01*
X111894667Y-46264333D01*
G37*
G36*
X109063251Y-46982536D02*
G01*
X109060792Y-48040341D01*
X109058333Y-49098145D01*
X108338667Y-49817843D01*
X108338667Y-46271410D01*
X109063251Y-46982536D01*
G37*
G36*
X106610077Y-41734666D02*
G01*
X104563923Y-41734666D01*
X103816077Y-40972666D01*
X107357923Y-40972666D01*
X106610077Y-41734666D01*
G37*
G36*
X106959628Y-44884961D02*
G01*
X107123634Y-45048602D01*
X107267345Y-45198599D01*
X107322667Y-45265961D01*
X107315773Y-45268153D01*
X107191206Y-45275322D01*
X106929373Y-45281509D01*
X106555184Y-45286362D01*
X106093547Y-45289532D01*
X105569372Y-45290666D01*
X103816077Y-45290666D01*
X104563923Y-44528666D01*
X106596590Y-44528666D01*
X106959628Y-44884961D01*
G37*
G36*
X111386667Y-53842000D02*
G01*
X109608667Y-53842000D01*
X109608667Y-52064000D01*
X111386667Y-52064000D01*
X111386667Y-53842000D01*
G37*
G36*
X104190000Y-47019256D02*
G01*
X104190000Y-49065410D01*
X103428000Y-49813256D01*
X103428000Y-46271410D01*
X104190000Y-47019256D01*
G37*
%TO.C,Q6*%
X143531250Y-65940000D02*
X142881250Y-65940000D01*
X143531250Y-65940000D02*
X144181250Y-65940000D01*
X143531250Y-69060000D02*
X144181250Y-69060000D01*
X143531250Y-69060000D02*
X141856250Y-69060000D01*
%TO.C,R9*%
X117745276Y-41522500D02*
X118254724Y-41522500D01*
X117745276Y-40477500D02*
X118254724Y-40477500D01*
%TO.C,R6*%
X117745276Y-50477500D02*
X118254724Y-50477500D01*
X117745276Y-51522500D02*
X118254724Y-51522500D01*
%TO.C,C3*%
X141941233Y-38490000D02*
X142233767Y-38490000D01*
X141941233Y-39510000D02*
X142233767Y-39510000D01*
%TO.C,R23*%
X137508750Y-63245276D02*
X137508750Y-63754724D01*
X138553750Y-63245276D02*
X138553750Y-63754724D01*
%TO.C,R34*%
X131553750Y-67245276D02*
X131553750Y-67754724D01*
X130508750Y-67245276D02*
X130508750Y-67754724D01*
%TO.C,Q9*%
X143531250Y-61940000D02*
X142881250Y-61940000D01*
X143531250Y-61940000D02*
X145206250Y-61940000D01*
X143531250Y-65060000D02*
X142881250Y-65060000D01*
X143531250Y-65060000D02*
X144181250Y-65060000D01*
%TO.C,R16*%
X139508750Y-67754724D02*
X139508750Y-67245276D01*
X140553750Y-67754724D02*
X140553750Y-67245276D01*
%TO.C,Q7*%
X134531250Y-69060000D02*
X135181250Y-69060000D01*
X134531250Y-65940000D02*
X133881250Y-65940000D01*
X134531250Y-65940000D02*
X135181250Y-65940000D01*
X134531250Y-69060000D02*
X132856250Y-69060000D01*
%TO.C,R31*%
X141832776Y-42477500D02*
X142342224Y-42477500D01*
X141832776Y-43522500D02*
X142342224Y-43522500D01*
%TD*%
M02*
